<?xml version="1.0" encoding="utf-8"?>
<!-- Generator: Adobe Illustrator 24.1.0, SVG Export Plug-In . SVG Version: 6.00 Build 0)  -->
<svg version="1.1" id="Layer_1" xmlns="http://www.w3.org/2000/svg" xmlns:xlink="http://www.w3.org/1999/xlink" x="0px" y="0px"
	 viewBox="0 0 200 200" style="enable-background:new 0 0 200 200;" xml:space="preserve">
<g>
	<path d="M21.7,40.5c0.7-2.8,1.4-5.6,3.3-8c4.5-5.8,10.7-7.6,17.7-7.2c5.9,0.4,10.9,2.7,14.2,7.9c7.3,11.5-0.2,26-14,26.9
		c-5,0.3-9.7-0.3-13.9-3.3c-3.8-2.7-6-6.3-6.9-10.8c-0.1-0.3-0.2-0.7-0.3-1C21.7,43.5,21.7,42,21.7,40.5z"/>
	<path d="M109.8,175.5c-11.4,0-22.5,0-33.6,0c0-33.8,0-67.5,0-101.3c11.2,0,22.3,0,33.6,0c0,4.6,0,9.1,0,13.9
		c1.9-2.2,3.5-4.3,5.3-6.3c5.1-5.5,11.5-8.6,18.9-9.6c6.8-0.9,13.5-0.5,20,1.8c10,3.4,16.7,10.2,20.8,19.8
		c3.2,7.6,4.2,15.7,4.3,23.9c0,18.8,0,37.7,0,56.5c0,0.4-0.1,0.9-0.1,1.4c-11.2,0-22.4,0-33.7,0c0-0.7,0-1.3,0-1.9
		c0-18,0.1-36-0.1-54.1c0-3.6-0.7-7.3-1.8-10.7c-2.4-7.5-8.5-11-16.4-10.5c-8.4,0.5-14.7,7.1-16.4,13.8c-0.6,2.5-0.7,5.2-0.7,7.8
		c-0.1,17.9,0,35.7,0,53.6C109.8,174.2,109.8,174.8,109.8,175.5z"/>
	<path d="M23.8,74.2c11.2,0,22.3,0,33.5,0c0,33.7,0,67.4,0,101.2c-11.1,0-22.2,0-33.5,0C23.8,141.7,23.8,108,23.8,74.2z"/>
</g>
</svg>
